<?xml version="1.0" encoding="UTF-8" standalone="no"?><svg xmlns="http://www.w3.org/2000/svg" xmlns:xlink="http://www.w3.org/1999/xlink" fill="#000000" height="60" preserveAspectRatio="xMidYMid meet" version="1" viewBox="7.0 2.0 50.0 60.0" width="50" zoomAndPan="magnify"><g fill="#0000ff" id="change1_1"><path d="M 9 11.71875 L 9 26.75 C 9 40.09375 16.414062 52.089844 28.347656 58.054688 L 32 59.882812 L 35.652344 58.054688 C 47.585938 52.089844 55 40.09375 55 26.75 L 55 11.71875 L 32 4.054688 Z M 32 62 C 31.847656 62 31.695312 61.964844 31.550781 61.894531 L 27.453125 59.84375 C 14.835938 53.535156 7 40.855469 7 26.75 L 7 11 C 7 10.570312 7.273438 10.1875 7.683594 10.050781 L 31.683594 2.050781 C 31.890625 1.984375 32.109375 1.984375 32.316406 2.050781 L 56.316406 10.050781 C 56.722656 10.1875 57 10.570312 57 11 L 57 26.75 C 57 40.855469 49.164062 53.535156 36.546875 59.84375 L 32.449219 61.894531 C 32.304688 61.964844 32.152344 62 32 62" fill="inherit"/><path d="M 15 16.046875 L 15 26.75 C 15 37.804688 21.144531 47.746094 31.03125 52.6875 L 32 53.171875 L 32.96875 52.6875 C 42.855469 47.746094 49 37.804688 49 26.75 L 49 16.046875 L 32 10.378906 Z M 32 55.292969 C 31.847656 55.292969 31.695312 55.257812 31.550781 55.1875 L 30.136719 54.476562 C 19.566406 49.195312 13 38.570312 13 26.75 L 13 15.324219 C 13 14.894531 13.277344 14.511719 13.683594 14.375 L 31.683594 8.375 C 31.890625 8.308594 32.109375 8.308594 32.316406 8.375 L 50.316406 14.375 C 50.722656 14.511719 51 14.894531 51 15.324219 L 51 26.75 C 51 38.570312 44.433594 49.195312 33.863281 54.476562 L 32.449219 55.1875 C 32.304688 55.257812 32.152344 55.292969 32 55.292969" fill="inherit"/><path d="M 22.929688 31.515625 L 30 38.585938 L 43.3125 25.273438 L 41.898438 23.859375 L 30.707031 35.050781 C 30.316406 35.441406 29.683594 35.441406 29.292969 35.050781 L 24.34375 30.101562 Z M 30 41 C 29.734375 41 29.480469 40.894531 29.292969 40.707031 L 20.808594 32.222656 C 20.621094 32.035156 20.515625 31.78125 20.515625 31.515625 C 20.515625 31.25 20.621094 30.996094 20.808594 30.808594 L 23.636719 27.980469 C 24.027344 27.589844 24.660156 27.589844 25.050781 27.980469 L 30 32.929688 L 41.191406 21.738281 C 41.582031 21.347656 42.214844 21.347656 42.605469 21.738281 L 45.433594 24.566406 C 45.824219 24.957031 45.824219 25.589844 45.433594 25.980469 L 30.707031 40.707031 C 30.519531 40.894531 30.265625 41 30 41" fill="inherit"/></g></svg>